<mxfile host="app.diagrams.net" modified="2021-08-26T06:23:22.789Z" agent="5.0 (Windows NT 6.1; Win64; x64) AppleWebKit/537.36 (KHTML, like Gecko) Chrome/92.0.4515.159 Safari/537.36" etag="tulmRGzTDtYtzU6iqeHL" version="14.9.9" type="github">
  <diagram name="Page-1" id="e7e014a7-5840-1c2e-5031-d8a46d1fe8dd">
    <mxGraphModel dx="2842" dy="876" grid="1" gridSize="10" guides="1" tooltips="1" connect="1" arrows="1" fold="1" page="1" pageScale="1" pageWidth="1169" pageHeight="826" background="none" math="0" shadow="0">
      <root>
        <mxCell id="0" />
        <mxCell id="1" parent="0" />
        <mxCell id="2" value="基金APP" style="swimlane;whiteSpace=wrap" parent="1" vertex="1">
          <mxGeometry x="120" y="20" width="324.5" height="1060" as="geometry" />
        </mxCell>
        <mxCell id="Wns041IuqCWwAr4T5Os7-53" value="" style="edgeStyle=orthogonalEdgeStyle;rounded=0;orthogonalLoop=1;jettySize=auto;html=1;" parent="2" source="7" target="8" edge="1">
          <mxGeometry relative="1" as="geometry" />
        </mxCell>
        <mxCell id="7" value="进入插件" style="" parent="2" vertex="1">
          <mxGeometry x="72" y="95" width="110" height="50" as="geometry" />
        </mxCell>
        <mxCell id="8" value="初始化" style="" parent="2" vertex="1">
          <mxGeometry x="72" y="182" width="110" height="50" as="geometry" />
        </mxCell>
        <mxCell id="Wns041IuqCWwAr4T5Os7-67" value="根据UserId获取数据库中的基金账号" style="whiteSpace=wrap;html=1;" parent="2" vertex="1">
          <mxGeometry x="72" y="328" width="120" height="60" as="geometry" />
        </mxCell>
        <mxCell id="Wns041IuqCWwAr4T5Os7-104" value="" style="edgeStyle=orthogonalEdgeStyle;rounded=0;orthogonalLoop=1;jettySize=auto;html=1;" parent="2" source="Wns041IuqCWwAr4T5Os7-99" target="Wns041IuqCWwAr4T5Os7-103" edge="1">
          <mxGeometry relative="1" as="geometry" />
        </mxCell>
        <mxCell id="Wns041IuqCWwAr4T5Os7-99" value="更新本地" style="rounded=1;whiteSpace=wrap;html=1;" parent="2" vertex="1">
          <mxGeometry x="71" y="561" width="120" height="60" as="geometry" />
        </mxCell>
        <mxCell id="Wns041IuqCWwAr4T5Os7-103" value="是否第一次进入" style="rhombus;whiteSpace=wrap;html=1;rounded=1;" parent="2" vertex="1">
          <mxGeometry x="71" y="655" width="118.25" height="80" as="geometry" />
        </mxCell>
        <mxCell id="Wns041IuqCWwAr4T5Os7-109" value="是" style="edgeStyle=orthogonalEdgeStyle;rounded=0;orthogonalLoop=1;jettySize=auto;html=1;" parent="2" source="Wns041IuqCWwAr4T5Os7-107" target="Wns041IuqCWwAr4T5Os7-103" edge="1">
          <mxGeometry relative="1" as="geometry" />
        </mxCell>
        <mxCell id="Wns041IuqCWwAr4T5Os7-107" value="当前基金&lt;br&gt;是否登录" style="rhombus;whiteSpace=wrap;html=1;rounded=1;" parent="2" vertex="1">
          <mxGeometry x="71" y="765" width="118.25" height="60" as="geometry" />
        </mxCell>
        <mxCell id="Wns041IuqCWwAr4T5Os7-108" value="" style="edgeStyle=orthogonalEdgeStyle;rounded=0;orthogonalLoop=1;jettySize=auto;html=1;" parent="2" source="Wns041IuqCWwAr4T5Os7-103" target="Wns041IuqCWwAr4T5Os7-107" edge="1">
          <mxGeometry relative="1" as="geometry" />
        </mxCell>
        <mxCell id="Wns041IuqCWwAr4T5Os7-113" value="" style="endArrow=classic;html=1;entryX=0;entryY=0.5;entryDx=0;entryDy=0;" parent="2" target="Wns041IuqCWwAr4T5Os7-112" edge="1">
          <mxGeometry width="50" height="50" relative="1" as="geometry">
            <mxPoint x="190" y="795" as="sourcePoint" />
            <mxPoint x="260" y="795" as="targetPoint" />
          </mxGeometry>
        </mxCell>
        <mxCell id="Wns041IuqCWwAr4T5Os7-114" value="是" style="edgeLabel;html=1;align=center;verticalAlign=middle;resizable=0;points=[];" parent="Wns041IuqCWwAr4T5Os7-113" vertex="1" connectable="0">
          <mxGeometry x="-0.2" y="3" relative="1" as="geometry">
            <mxPoint as="offset" />
          </mxGeometry>
        </mxCell>
        <mxCell id="Wns041IuqCWwAr4T5Os7-121" value="" style="edgeStyle=orthogonalEdgeStyle;rounded=0;orthogonalLoop=1;jettySize=auto;html=1;" parent="2" source="Wns041IuqCWwAr4T5Os7-115" edge="1">
          <mxGeometry relative="1" as="geometry">
            <mxPoint x="133" y="944" as="targetPoint" />
          </mxGeometry>
        </mxCell>
        <mxCell id="Wns041IuqCWwAr4T5Os7-115" value="更新到本地数据" style="rounded=1;whiteSpace=wrap;html=1;" parent="2" vertex="1">
          <mxGeometry x="73" y="845" width="120" height="60" as="geometry" />
        </mxCell>
        <mxCell id="Wns041IuqCWwAr4T5Os7-120" value="" style="ellipse;shape=startState;fillColor=#000000;strokeColor=#ff0000;" parent="2" vertex="1">
          <mxGeometry x="118" y="950" width="30" height="30" as="geometry" />
        </mxCell>
        <mxCell id="Wns041IuqCWwAr4T5Os7-122" value="" style="endArrow=classic;html=1;entryX=0;entryY=0.5;entryDx=0;entryDy=0;exitX=0;exitY=0.5;exitDx=0;exitDy=0;" parent="2" source="Wns041IuqCWwAr4T5Os7-103" edge="1">
          <mxGeometry width="50" height="50" relative="1" as="geometry">
            <mxPoint x="20" y="724" as="sourcePoint" />
            <mxPoint x="118" y="959" as="targetPoint" />
            <Array as="points">
              <mxPoint x="30" y="695" />
              <mxPoint x="30" y="959" />
            </Array>
          </mxGeometry>
        </mxCell>
        <mxCell id="Wns041IuqCWwAr4T5Os7-124" value="否" style="edgeLabel;html=1;align=center;verticalAlign=middle;resizable=0;points=[];" parent="Wns041IuqCWwAr4T5Os7-122" vertex="1" connectable="0">
          <mxGeometry x="0.0025" relative="1" as="geometry">
            <mxPoint as="offset" />
          </mxGeometry>
        </mxCell>
        <mxCell id="Wns041IuqCWwAr4T5Os7-123" value="" style="endArrow=classic;html=1;entryX=0;entryY=0.5;entryDx=0;entryDy=0;exitX=0;exitY=0.5;exitDx=0;exitDy=0;" parent="2" source="Wns041IuqCWwAr4T5Os7-107" edge="1">
          <mxGeometry width="50" height="50" relative="1" as="geometry">
            <mxPoint x="30" y="684" as="sourcePoint" />
            <mxPoint x="118" y="959" as="targetPoint" />
            <Array as="points">
              <mxPoint x="50" y="794" />
              <mxPoint x="50" y="959" />
            </Array>
          </mxGeometry>
        </mxCell>
        <mxCell id="Wns041IuqCWwAr4T5Os7-125" value="否" style="edgeLabel;html=1;align=center;verticalAlign=middle;resizable=0;points=[];" parent="Wns041IuqCWwAr4T5Os7-123" vertex="1" connectable="0">
          <mxGeometry x="-0.4172" y="1" relative="1" as="geometry">
            <mxPoint as="offset" />
          </mxGeometry>
        </mxCell>
        <mxCell id="3" value="基金后台" style="swimlane;whiteSpace=wrap" parent="1" vertex="1">
          <mxGeometry x="444.5" y="20" width="295.5" height="1060" as="geometry" />
        </mxCell>
        <mxCell id="SWONbqpRFApPX89HyIG5-17" value="" style="edgeStyle=orthogonalEdgeStyle;rounded=0;orthogonalLoop=1;jettySize=auto;html=1;" edge="1" parent="3" source="16" target="SWONbqpRFApPX89HyIG5-16">
          <mxGeometry relative="1" as="geometry" />
        </mxCell>
        <mxCell id="16" value="查询UserId下绑定&#xa;基金账户" style="fillColor=#d5e8d4;strokeColor=#82b366;" parent="3" vertex="1">
          <mxGeometry x="85.5" y="334" width="110" height="50" as="geometry" />
        </mxCell>
        <mxCell id="Wns041IuqCWwAr4T5Os7-112" value="绑定账号" style="rounded=0;whiteSpace=wrap;html=1;fillColor=#d5e8d4;strokeColor=#82b366;" parent="3" vertex="1">
          <mxGeometry x="95.5" y="765" width="120" height="60" as="geometry" />
        </mxCell>
        <mxCell id="SWONbqpRFApPX89HyIG5-16" value="是否有&lt;br&gt;基金账户" style="rhombus;whiteSpace=wrap;html=1;rounded=1;" vertex="1" parent="3">
          <mxGeometry x="80.86999999999999" y="400" width="118.25" height="80" as="geometry" />
        </mxCell>
        <mxCell id="SWONbqpRFApPX89HyIG5-22" value="查询伪码对应的基金账号并绑定" style="rounded=0;whiteSpace=wrap;html=1;fillColor=#6a00ff;strokeColor=#3700CC;fontColor=#ffffff;" vertex="1" parent="3">
          <mxGeometry x="175.5" y="490" width="120" height="60" as="geometry" />
        </mxCell>
        <mxCell id="4" value="主站" style="swimlane;whiteSpace=wrap" parent="1" vertex="1">
          <mxGeometry x="724.5" y="20" width="280" height="1060" as="geometry" />
        </mxCell>
        <mxCell id="Wns041IuqCWwAr4T5Os7-83" value="主站查询伪码" style="rounded=0;whiteSpace=wrap;html=1;fillColor=#6a00ff;strokeColor=#3700CC;fontColor=#ffffff;" parent="4" vertex="1">
          <mxGeometry x="75.5" y="410" width="120" height="60" as="geometry" />
        </mxCell>
        <mxCell id="Wns041IuqCWwAr4T5Os7-41" value="手炒APP" style="swimlane;whiteSpace=wrap" parent="1" vertex="1">
          <mxGeometry x="-114.5" y="20" width="234.5" height="1060" as="geometry" />
        </mxCell>
        <mxCell id="Wns041IuqCWwAr4T5Os7-42" value="" style="ellipse;shape=startState;fillColor=#000000;strokeColor=#ff0000;" parent="Wns041IuqCWwAr4T5Os7-41" vertex="1">
          <mxGeometry x="100" y="40" width="30" height="30" as="geometry" />
        </mxCell>
        <mxCell id="Wns041IuqCWwAr4T5Os7-43" value="" style="edgeStyle=elbowEdgeStyle;elbow=horizontal;verticalAlign=bottom;endArrow=open;endSize=8;strokeColor=#FF0000;endFill=1;rounded=0" parent="Wns041IuqCWwAr4T5Os7-41" source="Wns041IuqCWwAr4T5Os7-42" target="Wns041IuqCWwAr4T5Os7-44" edge="1">
          <mxGeometry x="100" y="40" as="geometry">
            <mxPoint x="115" y="110" as="targetPoint" />
          </mxGeometry>
        </mxCell>
        <mxCell id="Wns041IuqCWwAr4T5Os7-44" value="进入手炒" style="" parent="Wns041IuqCWwAr4T5Os7-41" vertex="1">
          <mxGeometry x="60" y="95" width="110" height="50" as="geometry" />
        </mxCell>
        <mxCell id="Wns041IuqCWwAr4T5Os7-45" value="获取手炒账号" style="fillColor=#fff2cc;strokeColor=#d6b656;" parent="Wns041IuqCWwAr4T5Os7-41" vertex="1">
          <mxGeometry x="60" y="182" width="110" height="50" as="geometry" />
        </mxCell>
        <mxCell id="Wns041IuqCWwAr4T5Os7-117" value="获取手炒cookie" style="fillColor=#fff2cc;strokeColor=#d6b656;" parent="Wns041IuqCWwAr4T5Os7-41" vertex="1">
          <mxGeometry x="64.5" y="270" width="110" height="50" as="geometry" />
        </mxCell>
        <mxCell id="Wns041IuqCWwAr4T5Os7-52" value="" style="endArrow=classic;html=1;exitX=1;exitY=0.5;exitDx=0;exitDy=0;entryX=0;entryY=0.5;entryDx=0;entryDy=0;" parent="1" source="Wns041IuqCWwAr4T5Os7-44" target="7" edge="1">
          <mxGeometry width="50" height="50" relative="1" as="geometry">
            <mxPoint x="60" y="187" as="sourcePoint" />
            <mxPoint x="220" y="137" as="targetPoint" />
          </mxGeometry>
        </mxCell>
        <mxCell id="Wns041IuqCWwAr4T5Os7-65" value="" style="endArrow=classic;html=1;exitX=1;exitY=0.5;exitDx=0;exitDy=0;entryX=0;entryY=0.5;entryDx=0;entryDy=0;" parent="1" source="Wns041IuqCWwAr4T5Os7-67" target="16" edge="1">
          <mxGeometry width="50" height="50" relative="1" as="geometry">
            <mxPoint x="350" y="338" as="sourcePoint" />
            <mxPoint x="400" y="288" as="targetPoint" />
          </mxGeometry>
        </mxCell>
        <mxCell id="Wns041IuqCWwAr4T5Os7-71" value="UserId" style="edgeLabel;html=1;align=center;verticalAlign=middle;resizable=0;points=[];" parent="Wns041IuqCWwAr4T5Os7-65" vertex="1" connectable="0">
          <mxGeometry x="-0.1181" y="-1" relative="1" as="geometry">
            <mxPoint as="offset" />
          </mxGeometry>
        </mxCell>
        <mxCell id="Wns041IuqCWwAr4T5Os7-66" value="" style="endArrow=classic;html=1;entryX=1;entryY=0.5;entryDx=0;entryDy=0;exitX=0;exitY=0.5;exitDx=0;exitDy=0;" parent="1" source="8" target="Wns041IuqCWwAr4T5Os7-45" edge="1">
          <mxGeometry width="50" height="50" relative="1" as="geometry">
            <mxPoint x="290" y="387" as="sourcePoint" />
            <mxPoint x="340" y="337" as="targetPoint" />
          </mxGeometry>
        </mxCell>
        <mxCell id="Wns041IuqCWwAr4T5Os7-87" value="" style="endArrow=classic;html=1;exitX=1;exitY=0.5;exitDx=0;exitDy=0;entryX=1;entryY=0.75;entryDx=0;entryDy=0;" parent="1" source="16" target="Wns041IuqCWwAr4T5Os7-99" edge="1">
          <mxGeometry width="50" height="50" relative="1" as="geometry">
            <mxPoint x="680" y="379" as="sourcePoint" />
            <mxPoint x="250" y="536" as="targetPoint" />
            <Array as="points">
              <mxPoint x="680" y="379" />
              <mxPoint x="680" y="486" />
              <mxPoint x="680" y="626" />
            </Array>
          </mxGeometry>
        </mxCell>
        <mxCell id="Wns041IuqCWwAr4T5Os7-100" value="" style="endArrow=classic;html=1;entryX=1;entryY=0.5;entryDx=0;entryDy=0;exitX=0.5;exitY=1;exitDx=0;exitDy=0;" parent="1" source="SWONbqpRFApPX89HyIG5-16" target="Wns041IuqCWwAr4T5Os7-99" edge="1">
          <mxGeometry width="50" height="50" relative="1" as="geometry">
            <mxPoint x="587.6199999999999" y="589" as="sourcePoint" />
            <mxPoint x="620" y="605" as="targetPoint" />
            <Array as="points">
              <mxPoint x="584" y="611" />
            </Array>
          </mxGeometry>
        </mxCell>
        <mxCell id="SWONbqpRFApPX89HyIG5-21" value="是" style="edgeLabel;html=1;align=center;verticalAlign=middle;resizable=0;points=[];" vertex="1" connectable="0" parent="Wns041IuqCWwAr4T5Os7-100">
          <mxGeometry x="-0.8386" y="3" relative="1" as="geometry">
            <mxPoint as="offset" />
          </mxGeometry>
        </mxCell>
        <mxCell id="Wns041IuqCWwAr4T5Os7-116" value="" style="endArrow=classic;html=1;exitX=0.5;exitY=1;exitDx=0;exitDy=0;entryX=1;entryY=0.5;entryDx=0;entryDy=0;" parent="1" source="Wns041IuqCWwAr4T5Os7-112" target="Wns041IuqCWwAr4T5Os7-115" edge="1">
          <mxGeometry width="50" height="50" relative="1" as="geometry">
            <mxPoint x="610" y="925" as="sourcePoint" />
            <mxPoint x="660" y="875" as="targetPoint" />
            <Array as="points">
              <mxPoint x="600" y="895" />
            </Array>
          </mxGeometry>
        </mxCell>
        <mxCell id="Wns041IuqCWwAr4T5Os7-119" value="" style="endArrow=classic;html=1;entryX=0;entryY=0.5;entryDx=0;entryDy=0;exitX=0.5;exitY=1;exitDx=0;exitDy=0;" parent="1" source="Wns041IuqCWwAr4T5Os7-45" target="Wns041IuqCWwAr4T5Os7-67" edge="1">
          <mxGeometry width="50" height="50" relative="1" as="geometry">
            <mxPoint x="-10" y="440" as="sourcePoint" />
            <mxPoint x="40" y="390" as="targetPoint" />
            <Array as="points">
              <mxPoint x="1" y="378" />
            </Array>
          </mxGeometry>
        </mxCell>
        <mxCell id="SWONbqpRFApPX89HyIG5-19" value="" style="endArrow=classic;html=1;entryX=0;entryY=0.5;entryDx=0;entryDy=0;exitX=1;exitY=0.5;exitDx=0;exitDy=0;" edge="1" parent="1" source="SWONbqpRFApPX89HyIG5-16" target="Wns041IuqCWwAr4T5Os7-83">
          <mxGeometry width="50" height="50" relative="1" as="geometry">
            <mxPoint x="770" y="460" as="sourcePoint" />
            <mxPoint x="820" y="410" as="targetPoint" />
          </mxGeometry>
        </mxCell>
        <mxCell id="SWONbqpRFApPX89HyIG5-20" value="否" style="edgeLabel;html=1;align=center;verticalAlign=middle;resizable=0;points=[];" vertex="1" connectable="0" parent="SWONbqpRFApPX89HyIG5-19">
          <mxGeometry x="-0.2022" y="2" relative="1" as="geometry">
            <mxPoint as="offset" />
          </mxGeometry>
        </mxCell>
        <mxCell id="SWONbqpRFApPX89HyIG5-23" value="" style="endArrow=classic;html=1;entryX=1;entryY=0.5;entryDx=0;entryDy=0;exitX=0.5;exitY=1;exitDx=0;exitDy=0;" edge="1" parent="1" source="Wns041IuqCWwAr4T5Os7-83" target="SWONbqpRFApPX89HyIG5-22">
          <mxGeometry width="50" height="50" relative="1" as="geometry">
            <mxPoint x="820" y="620" as="sourcePoint" />
            <mxPoint x="870" y="570" as="targetPoint" />
            <Array as="points">
              <mxPoint x="860" y="540" />
            </Array>
          </mxGeometry>
        </mxCell>
      </root>
    </mxGraphModel>
  </diagram>
</mxfile>
